<svg xmlns="http://www.w3.org/2000/svg" viewBox="0 0 700 200" fill="none">
  <defs>
    <linearGradient id="accentGrad" x1="0%" y1="0%" x2="100%" y2="100%">
      <stop offset="0%" style="stop-color:#00d4ff"/>
      <stop offset="100%" style="stop-color:#00ff88"/>
    </linearGradient>
  </defs>
  
  <!-- Background -->
  <rect width="700" height="200" fill="#0c0c12"/>
  
  <!-- Step 1: Source Folder -->
  <rect x="20" y="55" width="110" height="80" rx="10" fill="#141420" stroke="#00d4ff" stroke-width="1.5"/>
  <text x="75" y="85" fill="#ffffff" font-family="system-ui, sans-serif" font-size="12" font-weight="600" text-anchor="middle">Source</text>
  <text x="75" y="102" fill="#94a3b8" font-family="system-ui, sans-serif" font-size="10" text-anchor="middle">Folder</text>
  <text x="75" y="122" fill="#00d4ff" font-family="monospace" font-size="10" text-anchor="middle">~500 docs</text>
  
  <!-- Arrow 1 -->
  <path d="M135 95 L175 95" stroke="url(#accentGrad)" stroke-width="2" stroke-linecap="round"/>
  <polygon points="175,91 185,95 175,99" fill="#00d4ff"/>
  
  <!-- Step 2: Script -->
  <rect x="190" y="55" width="120" height="80" rx="10" fill="#141420" stroke="#00d4ff" stroke-width="1.5"/>
  <text x="250" y="82" fill="#ffffff" font-family="system-ui, sans-serif" font-size="12" font-weight="600" text-anchor="middle">Automation</text>
  <text x="250" y="99" fill="#94a3b8" font-family="system-ui, sans-serif" font-size="10" text-anchor="middle">Script</text>
  <text x="250" y="120" fill="#00ff88" font-family="monospace" font-size="9" text-anchor="middle">Python + Selenium</text>
  
  <!-- Arrow 2 -->
  <path d="M315 95 L355 95" stroke="url(#accentGrad)" stroke-width="2" stroke-linecap="round"/>
  <polygon points="355,91 365,95 355,99" fill="#00d4ff"/>
  
  <!-- Step 3: System -->
  <rect x="370" y="55" width="110" height="80" rx="10" fill="#141420" stroke="#00d4ff" stroke-width="1.5"/>
  <text x="425" y="85" fill="#ffffff" font-family="system-ui, sans-serif" font-size="12" font-weight="600" text-anchor="middle">Target</text>
  <text x="425" y="102" fill="#94a3b8" font-family="system-ui, sans-serif" font-size="10" text-anchor="middle">System</text>
  <text x="425" y="122" fill="#00d4ff" font-family="monospace" font-size="10" text-anchor="middle">PeopleSoft</text>
  
  <!-- Arrow to success -->
  <path d="M485 80 L520 80 L520 45 L555 45" stroke="#00ff88" stroke-width="1.5" stroke-linecap="round" fill="none"/>
  <polygon points="555,41 565,45 555,49" fill="#00ff88"/>
  
  <!-- Arrow to error -->
  <path d="M485 110 L520 110 L520 145 L555 145" stroke="#ef4444" stroke-width="1.5" stroke-linecap="round" fill="none"/>
  <polygon points="555,141 565,145 555,149" fill="#ef4444"/>
  
  <!-- Success box -->
  <rect x="570" y="20" width="110" height="50" rx="8" fill="#141420" stroke="#00ff88" stroke-width="1.5"/>
  <text x="625" y="42" fill="#00ff88" font-family="system-ui, sans-serif" font-size="11" font-weight="600" text-anchor="middle">✓ Success</text>
  <text x="625" y="58" fill="#94a3b8" font-family="system-ui, sans-serif" font-size="9" text-anchor="middle">Attached</text>
  
  <!-- Error box -->
  <rect x="570" y="120" width="110" height="50" rx="8" fill="#141420" stroke="#ef4444" stroke-width="1.5"/>
  <text x="625" y="142" fill="#ef4444" font-family="system-ui, sans-serif" font-size="11" font-weight="600" text-anchor="middle">✗ Error</text>
  <text x="625" y="158" fill="#94a3b8" font-family="system-ui, sans-serif" font-size="9" text-anchor="middle">Logged</text>
  
  <!-- Bottom info -->
  <text x="350" y="188" fill="#64748b" font-family="system-ui, sans-serif" font-size="10" text-anchor="middle">Runs daily • Unattended • CSV error log</text>
</svg>